<?xml version="1.0" encoding="UTF-8"?><svg id="Calque_1" xmlns="http://www.w3.org/2000/svg" viewBox="0 0 500 500"><defs><style>.cls-1{fill:#fff;}</style></defs><path class="cls-1" d="m314.08,379.82c-1.88-2.33-3.03-3.73-4.16-5.15-7.9-9.86-15.74-19.77-23.71-29.58-5.02-6.18-12.6-7.2-18.37-2.69-5.73,4.48-6.47,12.16-1.64,18.49,3.39,4.44,6.95,8.75,10.44,13.11,12.96,16.2,25.9,32.43,38.9,48.6,6.56,8.17,15.37,8.82,21.68,1.06,17.04-20.94,33.91-42.03,50.49-63.34,2.02-2.6,2.78-6.95,2.53-10.37-.38-5.2-4.12-8.39-9.21-9.78-5.57-1.51-9.98.5-13.42,4.74-8.05,9.91-15.96,19.93-23.94,29.91-1.11,1.39-2.25,2.75-4.03,4.91v-5.82c0-95.26,0-190.52,0-285.78,0-1.73.07-3.47-.1-5.18-.66-6.46-5.85-11.34-12.18-11.58-6.33-.24-11.98,4.28-13.04,10.61-.31,1.82-.21,3.71-.21,5.57,0,95.39,0,190.79,0,286.18v6.08ZM186.33,45.81c-28.1,0-51.04,22.89-51.09,50.98-.05,28.1,22.78,51.08,50.88,51.19,28.25.12,51.35-22.93,51.29-51.18-.05-28.1-22.98-50.99-51.08-50.99Z"/><path d="m167.96,454.6c-4.3-2.25-9.04-3.94-12.8-6.89-6.24-4.9-7.96-12.23-8.71-19.87-3.07-31.36-6.25-62.71-9.38-94.06-.22-2.22-.44-4.43-.69-6.94-4.56,0-8.8.05-13.03-.01-8.87-.13-14.4-6.12-13.52-15.01,2.99-30.3,6.09-60.59,9.16-90.88.86-8.47,1.52-16.96,2.67-25.38,1.72-12.51,11.5-21.3,24.15-21.91,5.04-.24,10.19-.6,15.14.12,3.31.48,6.9,2.14,9.43,4.35,5.49,4.79,10.38,10.26,15.89,15.83,5.08-5.11,10.05-9.87,14.74-14.88,3.72-3.97,8.04-5.84,13.48-5.54,3.85.21,7.72-.05,11.57.08,13.25.44,23.41,9.2,24.95,22.39,2.4,20.46,4.28,40.99,6.36,61.49,1.77,17.46,3.41,34.94,5.32,52.38,1.21,11.03-3.87,16.98-15,17-3.7,0-7.4,0-11.44,0-.7,6.87-1.37,13.45-2.03,20.03-2.84,28.18-5.55,56.37-8.59,84.52-1.27,11.81-8.08,19.31-19.58,22.48-.49.13-.92.48-1.37.72h-36.73Z"/><path d="m339.2,120.69v6.08c0,95.39,0,190.79,0,286.18,0,1.86.1,3.75-.21,5.57-1.06,6.32-6.71,10.85-13.04,10.61-6.34-.24-11.52-5.12-12.18-11.58-.18-1.71-.1-3.46-.1-5.18,0-95.26,0-190.52,0-285.78v-5.82c-1.78,2.16-2.92,3.52-4.03,4.91-7.97,9.97-15.89,19.99-23.94,29.91-3.44,4.24-7.85,6.25-13.42,4.74-5.09-1.38-8.83-4.58-9.21-9.78-.25-3.42.5-7.78,2.53-10.37,16.58-21.31,33.45-42.4,50.49-63.34,6.31-7.75,15.11-7.1,21.68,1.06,13,16.17,25.94,32.4,38.9,48.6,3.49,4.36,7.05,8.67,10.44,13.11,4.83,6.33,4.08,14.01-1.64,18.49-5.76,4.51-13.35,3.49-18.37-2.69-7.97-9.81-15.81-19.71-23.71-29.58-1.13-1.42-2.28-2.82-4.16-5.15Z"/><path d="m186.33,45.81c28.1,0,51.03,22.89,51.08,50.99.06,28.25-23.04,51.3-51.29,51.18-28.1-.12-50.93-23.09-50.88-51.19.05-28.09,22.99-50.98,51.09-50.98Z"/></svg>